# xmcd
#
# Track frame offsets: 
#        150
#        19523
#        36061
#        64933
#        86814
#        110353
#        131139
#        146416
#        159939
#        180920
#        197345
#        214866
#        228870
#        245549
#        261361
#        280892
#        303460
#        327461
#
# Disc length: 4621 seconds
#
# Revision: 2
# Processed by: cddbd v1.5.2PL0 Copyright (c) Steve Scherf et al.
# Submitted via: ExactAudioCopy v0.95b2
#
DISCID=f9120b12
DTITLE=Various Artist - Mystic Spirits Vol.11 Cd2
DYEAR=2004
DGENRE=New Age
TTITLE0=Lesiem - Patientia (Geduld)(Album Version)
TTITLE1=Mike Oldfield - Ommadawn
TTITLE2=Blackmore's Night - Way To Mandalay
TTITLE3=Gregorian - The Gift
TTITLE4=Marc Glenroy - Promises
TTITLE5=Angel Voices - Microcosmos
TTITLE6=Hey Negrita - Beaujolais Village
TTITLE7=Sky - Thanks
TTITLE8=Jaya Lakshmi - Ramachandra
TTITLE9=Runrig - Protect And Survive
TTITLE10=Kieran - The Mountain Side
TTITLE11=Rosso Bianco - Summernight Melody
TTITLE12=The Sands Family - Spancill Hill
TTITLE13=Witthüser and Westrupp - Die Erleuchtung
TTITLE14=Epica - Feint
TTITLE15=Der Spyra - Die Hanse
TTITLE16=Icehouse - Man Of Colours
TTITLE17=Therion - Lemuria
EXTD=YEAR: 2004
EXTT0=
EXTT1=
EXTT2=
EXTT3=
EXTT4=
EXTT5=
EXTT6=
EXTT7=
EXTT8=
EXTT9=
EXTT10=
EXTT11=
EXTT12=
EXTT13=
EXTT14=
EXTT15=
EXTT16=
EXTT17=
PLAYORDER=
